<svg id="Bill-Payment-Purchase-Shopping-Marketing" height="512" viewBox="0 0 64 64" width="512" xmlns="http://www.w3.org/2000/svg"><path d="m45 3v58l-3-4-3 4-3-4-3 4-3-4-3 4-3-4-3 4-3-4-3 4-2.57-3.43-.43-.57-3 4-3-4-3 4v-58l3 4 3-4 3 4 3-4 3 4 3-4 3 4 3-4 3 4 3-4 3 4 3-4 3 4z" fill="#e6e7e8"/><path d="m45 25v36l-3-4-3 4-3-4-3 4-3-4-3 4-3-4-3 4-3-4-3 4-2.57-3.43z" fill="#e0e0e2"/><circle cx="45" cy="24" fill="#ffd422" r="9"/><path d="m55 40a2.006 2.006 0 0 1 2 2v1h-9.4c.01-.13.02-.27.02-.4a2.982 2.982 0 0 0 -1.5-2.6z" fill="#ffb655"/><path d="m45 37v2.35l-4.07-2.35z" fill="#ffa733"/><path d="m45 45.57v3.43h-11l-5-4h-2v-12h6.95.05l6.93 4 4.07 2.35z" fill="#ffc477"/><path d="m52 37h-11.07l4.07 2.35 1.12.65h7.88v-1a2.006 2.006 0 0 0 -2-2z" fill="#ffa733"/><path d="m60.12 43.88a2.993 2.993 0 0 0 -2.12-.88h-10.4c.01-.13.02-.27.02-.4a2.982 2.982 0 0 0 -1.5-2.6l-1.12-.65-4.07-2.35-6.93-4h-7v12h2l5 4h24a3 3 0 0 0 2.12-5.12z" fill="#ffc477"/><path d="m27 45v2h-8v-4-12h8v2z" fill="#3d9ae2"/><path d="m60.827 43.173a3.971 3.971 0 0 0 -2.827-1.173 3 3 0 0 0 -3-3 3 3 0 0 0 -3-3h-6v-2.051a10 10 0 0 0 0-19.9v-11.049a1 1 0 0 0 -1.8-.6l-2.2 2.933-2.2-2.933a1.036 1.036 0 0 0 -1.6 0l-2.2 2.933-2.2-2.933a1.036 1.036 0 0 0 -1.6 0l-2.2 2.933-2.2-2.933a1.036 1.036 0 0 0 -1.6 0l-2.2 2.933-2.2-2.933a1.036 1.036 0 0 0 -1.6 0l-2.2 2.933-2.2-2.933a1.036 1.036 0 0 0 -1.6 0l-2.2 2.933-2.2-2.933a1.036 1.036 0 0 0 -1.6 0l-2.2 2.933-2.2-2.933a1 1 0 0 0 -1.8.6v58a1 1 0 0 0 1.8.6l2.2-2.933 2.2 2.933a1.036 1.036 0 0 0 1.6 0l2.2-2.933 2.2 2.933a1.036 1.036 0 0 0 1.6 0l2.2-2.933 2.2 2.933a1.036 1.036 0 0 0 1.6 0l2.2-2.933 2.2 2.933a1.036 1.036 0 0 0 1.6 0l2.2-2.933 2.2 2.933a1.036 1.036 0 0 0 1.6 0l2.2-2.933 2.2 2.933a1.036 1.036 0 0 0 1.6 0l2.2-2.933 2.2 2.933a1 1 0 0 0 .8.4 1 1 0 0 0 1-1v-11h12a4 4 0 0 0 2.827-6.827zm-4.827-1.173h-7.439a4.124 4.124 0 0 0 -.073-.438 3.908 3.908 0 0 0 -.211-.562h6.723a1 1 0 0 1 1 1zm-3-3h-6.608l-1.732-1h7.34a1 1 0 0 1 1 1zm0-15a8 8 0 1 1 -8-8 8.009 8.009 0 0 1 8 8zm-9 34-1.2-1.6a1.036 1.036 0 0 0 -1.6 0l-2.2 2.933-2.2-2.933a1.036 1.036 0 0 0 -1.6 0l-2.2 2.933-2.2-2.933a1.036 1.036 0 0 0 -1.6 0l-2.2 2.933-2.2-2.933a1.036 1.036 0 0 0 -1.6 0l-2.2 2.933-2.2-2.933a1.036 1.036 0 0 0 -1.6 0l-2.2 2.933-2.2-2.933a1.036 1.036 0 0 0 -1.6 0l-2.2 2.933-2.2-2.933a1.036 1.036 0 0 0 -1.6 0l-1.2 1.6v-52l1.2 1.6a1.036 1.036 0 0 0 1.6 0l2.2-2.933 2.2 2.933a1.036 1.036 0 0 0 1.6 0l2.2-2.933 2.2 2.933a1.036 1.036 0 0 0 1.6 0l2.2-2.933 2.2 2.933a1.036 1.036 0 0 0 1.6 0l2.2-2.933 2.2 2.933a1.036 1.036 0 0 0 1.6 0l2.2-2.933 2.2 2.933a1.036 1.036 0 0 0 1.6 0l2.2-2.933 2.2 2.933a1.036 1.036 0 0 0 1.6 0l1.2-1.6v8.051a10 10 0 0 0 0 19.9v2.049h-2.8l-6.7-3.866a1.189 1.189 0 0 0 -.55-.134h-5.95v-1a1 1 0 0 0 -1-1h-8a1 1 0 0 0 -1 1v16a1 1 0 0 0 1 1h8a1 1 0 0 0 1-1v-1h.649l4.726 3.781a1 1 0 0 0 .625.219h10zm-18-26v14h-6v-14zm32 16h-23.649l-4.726-3.781a1 1 0 0 0 -.625-.219h-1v-10h5.732l11.892 6.866a2 2 0 1 1 -2 3.464l-8.13-4.694-1 1.732 8.13 4.694a4 4 0 0 0 5.465-1.462 4.1 4.1 0 0 0 .271-.6h9.64a2 2 0 0 1 0 4z"/><path d="m44 18v1a3 3 0 0 0 0 6h2a1 1 0 0 1 0 2h-2a1 1 0 0 1 -1-1h-2a3 3 0 0 0 3 3v1h2v-1a3 3 0 0 0 0-6h-2a1 1 0 0 1 0-2h2a1 1 0 0 1 1 1h2a3 3 0 0 0 -3-3v-1z"/><path d="m6 30h4v2h-4z"/><path d="m12 30h4v2h-4z"/><path d="m6 34h4v2h-4z"/><path d="m12 34h4v2h-4z"/><path d="m6 22h4v2h-4z"/><path d="m12 22h20v2h-20z"/><path d="m6 26h4v2h-4z"/><path d="m12 26h20v2h-20z"/><path d="m6 38h4v2h-4z"/><path d="m12 38h4v2h-4z"/><path d="m6 42h4v2h-4z"/><path d="m12 42h4v2h-4z"/><path d="m6 46h4v2h-4z"/><path d="m12 46h4v2h-4z"/><path d="m6 50h4v2h-4z"/><path d="m12 50h18v2h-18z"/><path d="m6 12h10v2h-10z"/><path d="m6 16h16v2h-16z"/><path d="m18 12h4v2h-4z"/></svg>