<svg height="512" viewBox="0 0 64 64" width="512" xmlns="http://www.w3.org/2000/svg"><g id="Financial-Calculator-Payment-Tablet-Online"><path d="m57 25h-16a2.006 2.006 0 0 0 -2 2v28a2.006 2.006 0 0 0 2 2h16a2.006 2.006 0 0 0 2-2v-28a2.006 2.006 0 0 0 -2-2zm-2 20v8h-12v-12h12zm0-8h-12v-8h12z" fill="#bddbff"/><path d="m30 53a2.006 2.006 0 0 1 2 2 2.015 2.015 0 0 1 -2 2h-4a2.006 2.006 0 0 1 -2-2 2.015 2.015 0 0 1 2-2z" fill="#bddbff"/><circle cx="20" cy="22" fill="#bddbff" r="9"/><path d="m33 3v2a2.006 2.006 0 0 1 -2 2h-6a2.006 2.006 0 0 1 -2-2v-2z" fill="#bddbff"/><g fill="#3d9ae2"><path d="m30 52h-4a3 3 0 0 0 0 6h4a3 3 0 0 0 0-6zm0 4h-4a1 1 0 0 1 0-2h4a1 1 0 0 1 0 2z"/><path d="m16 6h4v2h-4z"/><path d="m36 6h4v2h-4z"/><path d="m19 19h2a1 1 0 0 1 1 1h2a3 3 0 0 0 -3-3v-1h-2v1a3 3 0 0 0 0 6h2a1 1 0 0 1 0 2h-2a1 1 0 0 1 -1-1h-2a3 3 0 0 0 3 3v1h2v-1a3 3 0 0 0 0-6h-2a1 1 0 0 1 0-2z"/><path d="m30 22a10 10 0 1 0 -10 10 10.011 10.011 0 0 0 10-10zm-10 8a8 8 0 1 1 8-8 8.009 8.009 0 0 1 -8 8z"/><path d="m55 40h-12a1 1 0 0 0 -1 1v12a1 1 0 0 0 1 1h12a1 1 0 0 0 1-1v-12a1 1 0 0 0 -1-1zm-1 4h-2v-2h2zm-6 4v-2h2v2zm2 2v2h-2v-2zm-4-2h-2v-2h2zm2-4v-2h2v2zm4 2h2v2h-2zm-6-4v2h-2v-2zm-2 8h2v2h-2zm8 2v-2h2v2z"/><path d="m58 24.184v-13.184a1 1 0 0 0 -1.6-.8l-2.062 1.55-2.065-1.55a.988.988 0 0 0 -.273-.142v-3.058a5.006 5.006 0 0 0 -5-5h-38a5.006 5.006 0 0 0 -5 5v50a5.006 5.006 0 0 0 5 5h38a5.009 5.009 0 0 0 4.9-4h5.1a3 3 0 0 0 3-3v-28a3 3 0 0 0 -2-2.816zm-4.263-10.384a1 1 0 0 0 1.2 0l1.063-.8v11h-14v-11l1.071.8a1 1 0 0 0 1.2 0l2.07-1.55 2.066 1.55a1 1 0 0 0 1.2 0l2.067-1.55zm-29.737-9.8h8v1a1 1 0 0 1 -1 1h-6a1 1 0 0 1 -1-1zm23 56h-38a3 3 0 0 1 -3-3v-50a3 3 0 0 1 3-3h13v1a3 3 0 0 0 3 3h6a3 3 0 0 0 3-3v-1h13a3 3 0 0 1 3 3v4.005l-.993.745-2.067-1.55a1 1 0 0 0 -1.2 0l-2.07 1.55-2.07-1.55a1 1 0 0 0 -1.6.8v13.184a3 3 0 0 0 -2 2.816v28a3 3 0 0 0 3 3h8.816a3 3 0 0 1 -2.816 2zm11-5a1 1 0 0 1 -1 1h-16a1 1 0 0 1 -1-1v-28a1 1 0 0 1 1-1h16a1 1 0 0 1 1 1z"/><path d="m55 28h-12a1 1 0 0 0 -1 1v8a1 1 0 0 0 1 1h12a1 1 0 0 0 1-1v-8a1 1 0 0 0 -1-1zm-1 8h-10v-6h10z"/><path d="m44 16h6v2h-6z"/><path d="m52 16h2v2h-2z"/><path d="m44 20h6v2h-6z"/><path d="m52 20h2v2h-2z"/><path d="m46 32h2v2h-2z"/><path d="m50 32h2v2h-2z"/><path d="m14 34h6v2h-6z"/><path d="m10 34h2v2h-2z"/><path d="m10 38h10v2h-10z"/><path d="m10 42h10v2h-10z"/><path d="m10 46h10v2h-10z"/><path d="m22 34h10v2h-10z"/><path d="m22 38h10v2h-10z"/><path d="m22 42h10v2h-10z"/><path d="m22 46h10v2h-10z"/></g></g></svg>