<svg height="512" viewBox="0 0 64 64" width="512" xmlns="http://www.w3.org/2000/svg"><g id="Financial-Calculator-Payment-Tablet-Online"><rect fill="#5aaae7" height="58" rx="4" width="46" x="5" y="3"/><path d="m51 23v34a4 4 0 0 1 -4 4h-34z" fill="#3d9ae2"/><rect fill="#ff9811" height="32" rx="2" width="20" x="39" y="25"/><path d="m54.34 13-2.67-2-.67.5-1.99 1.5-2.67-2-2.67 2-2.67-2v14h10 6v-14z" fill="#e6e7e8"/><path d="m51 49h4v4h-4z" fill="#bcbec0"/><path d="m47 49h4v4h-4z" fill="#e6e7e8"/><path d="m43 49h4v4h-4z" fill="#bcbec0"/><path d="m51 45h4v4h-4z" fill="#e6e7e8"/><path d="m47 45h4v4h-4z" fill="#bcbec0"/><path d="m43 45h4v4h-4z" fill="#e6e7e8"/><path d="m47 41h4v4h-4z" fill="#e6e7e8"/><path d="m51 41h4v4h-4z" fill="#bcbec0"/><path d="m43 41h4v4h-4z" fill="#bcbec0"/><path d="m43 29h12v8h-12z" fill="#ffde55"/><path d="m30 53a2.006 2.006 0 0 1 2 2 2.015 2.015 0 0 1 -2 2h-4a2.006 2.006 0 0 1 -2-2 2.015 2.015 0 0 1 2-2z" fill="#d1d3d4"/><circle cx="22" cy="24" fill="#3d9ae2" r="9"/><path d="m33 3v2a2.006 2.006 0 0 1 -2 2h-6a2.006 2.006 0 0 1 -2-2v-2z" fill="#ff9811"/><circle cx="20" cy="22" fill="#ffd422" r="9"/><path d="m16 6h4v2h-4z" fill="#3d9ae2"/><path d="m36 6h4v2h-4z" fill="#3d9ae2"/><path d="m21 21h-2a1 1 0 0 1 0-2h2a1 1 0 0 1 1 1h2a3 3 0 0 0 -3-3v-1h-2v1a3 3 0 0 0 0 6h2a1 1 0 0 1 0 2h-2a1 1 0 0 1 -1-1h-2a3 3 0 0 0 3 3v1h2v-1a3 3 0 0 0 0-6z" fill="#ed1c24"/><path d="m44 16h6v2h-6z" fill="#bcbec0"/><path d="m52 16h2v2h-2z" fill="#bcbec0"/><path d="m44 20h6v2h-6z" fill="#bcbec0"/><path d="m52 20h2v2h-2z" fill="#bcbec0"/><path d="m46 32h2v2h-2z" fill="#ff9811"/><path d="m50 32h2v2h-2z" fill="#ff9811"/><g fill="#1e81ce"><path d="m14 34h6v2h-6z"/><path d="m10 34h2v2h-2z"/><path d="m10 38h10v2h-10z"/><path d="m10 42h10v2h-10z"/><path d="m10 46h10v2h-10z"/><path d="m22 34h10v2h-10z"/><path d="m22 38h10v2h-10z"/><path d="m22 42h10v2h-10z"/><path d="m22 46h10v2h-10z"/></g></g></svg>