<svg height="511pt" viewBox="0 -16 511.99944 511" width="511pt" xmlns="http://www.w3.org/2000/svg"><path d="m387.261719 102.019531c-2.75 0-5-2.25-5-5v-56.113281h-348.75c-2.75 0-5 2.25-5 5v228.746094c.917969-1.023438 1.871093-2.027344 2.851562-3.015625 31.84375-32.023438 83.65625-32.023438 115.5 0 23.1875 23.316406 29.46875 57.277343 18.886719 86.382812h303.394531c2.75 0 5-2.25 5-5v-251zm0 0" fill="#e6e9ed"/><path d="m106.421875 249.496094v-71.640625c0-1.652344-1.351563-3-3-3h-28.835937c-1.652344 0-3 1.347656-3 3v71.6875c11.464843-2.519531 23.363281-2.535157 34.835937-.046875zm0 0" fill="#fb8276"/><path d="m146.859375 271.636719c5.496094 5.523437 10.019531 11.65625 13.617187 18.167969v-88.476563c0-1.652344-1.351562-3-3-3h-28.835937c-1.648437 0-3 1.347656-3 3v54.945313c7.65625 3.84375 14.84375 8.949218 21.21875 15.363281zm0 0" fill="#ffc502"/><path d="m214.53125 308.097656c0 1.648438-1.347656 3-3 3h-28.835938c-1.648437 0-3-1.351562-3-3v-134.410156c0-1.648438 1.351563-3 3-3h28.835938c1.652344 0 3 1.351562 3 3zm0 0" fill="#89c947"/><path d="m268.585938 308.097656c0 1.648438-1.347657 3-3 3h-28.835938c-1.648438 0-3-1.351562-3-3v-159.839844c0-1.648437 1.351562-3 3-3h28.835938c1.652343 0 3 1.351563 3 3zm0 0" fill="#0291c9"/><path d="m322.644531 308.097656c0 1.648438-1.351562 3-3 3h-28.835937c-1.648438 0-3-1.351562-3-3v-189.6875c0-1.652344 1.351562-3 3-3h28.835937c1.648438 0 3 1.347656 3 3zm0 0" fill="#fb8276"/><path d="m377.015625 308.097656c0 1.648438-1.351563 3-3 3h-28.835937c-1.648438 0-3-1.351562-3-3v-106.769531c0-1.652344 1.351562-3 3-3h28.835937c1.648437 0 3 1.347656 3 3zm0 0" fill="#ffc502"/><path d="m431.070312 308.097656c0 1.648438-1.351562 3-3 3h-28.835937c-1.648437 0-3-1.351562-3-3v-134.410156c0-1.648438 1.351563-3 3-3h28.835937c1.648438 0 3 1.351562 3 3zm0 0" fill="#89c947"/><path d="m504.5 97.019531c0 2.75-2.25 5-5 5h-112.238281c-2.75 0-5-2.25-5-5v-84.019531c0-2.75 2.25-5 5-5h112.238281c2.75 0 5 2.25 5 5zm0 0" fill="#f7931e"/><path d="m229.339844 455.074219-61.625-61.96875-15.59375 15.617187 61.65625 62.003906c1.9375 1.949219 5.109375 1.949219 7.050781 0l8.511719-8.5625c1.941406-1.949218 1.941406-5.140624 0-7.089843zm0 0" fill="#0291c9"/><path d="m158.074219 373.679688c-3.15625 5.003906-6.878907 9.742187-11.214844 14.105468-4.449219 4.472656-9.296875 8.300782-14.417969 11.523438l10.894532 11.136718c1.921874 1.964844 5.085937 1.980469 7.03125.035157l18.546874-18.574219c1.941407-1.945312 1.957032-5.144531.035157-7.113281zm0 0" fill="#0481bf"/><path d="m146.859375 387.785156c-31.84375 32.019532-83.65625 32.019532-115.496094 0-31.84375-32.023437-31.84375-84.125 0-116.148437 31.839844-32.023438 83.652344-32.023438 115.496094 0 31.847656 32.023437 31.847656 84.125 0 116.148437zm0 0" fill="#ef5050"/><path d="m130.574219 288.015625c22.902343 23.027344 22.902343 60.363281 0 83.390625-22.898438 23.027344-60.023438 23.027344-82.925781 0-22.898438-23.027344-22.898438-60.363281 0-83.390625 22.898437-23.03125 60.027343-23.03125 82.925781 0zm0 0" fill="#75eae7"/><path d="m171.984375 70.585938h-100.398437c-4.144532 0-7.5 3.359374-7.5 7.5 0 4.144531 3.355468 7.503906 7.5 7.503906h100.398437c4.144531 0 7.503906-3.359375 7.503906-7.503906 0-4.140626-3.359375-7.5-7.503906-7.5zm0 0"/><path d="m179.488281 100.089844c0-4.144532-3.359375-7.5-7.503906-7.5h-100.398437c-4.144532 0-7.5 3.355468-7.5 7.5 0 4.140625 3.355468 7.5 7.5 7.5h100.398437c4.144531 0 7.503906-3.359375 7.503906-7.5zm0 0"/><path d="m71.585938 114.589844c-4.144532 0-7.5 3.359375-7.5 7.5s3.355468 7.5 7.5 7.5h64c4.144531 0 7.503906-3.359375 7.503906-7.5s-3.359375-7.5-7.503906-7.5zm0 0"/><path d="m499.5.5h-112.238281c-6.894531 0-12.5 5.609375-12.5 12.5v20.402344h-341.25c-6.894531 0-12.5 5.609375-12.5 12.503906v225.980469c-29.59375 35.167969-27.933594 88.03125 5.03125 121.183593 16.820312 16.914063 39.21875 26.230469 63.070312 26.230469 14.933594 0 29.300781-3.65625 42.082031-10.539062l6.78125 6.929687c2.359376 2.410156 5.515626 3.738282 8.894532 3.738282 1.558594 0 3.070312-.296876 4.480468-.839844l57.109376 57.425781c2.355468 2.367187 5.496093 3.671875 8.84375 3.671875 3.34375 0 6.484374-1.304688 8.84375-3.671875l8.511718-8.5625c4.84375-4.871094 4.84375-12.796875 0-17.667969l-57.363281-57.6875c1.332031-4.277344.34375-9.144531-2.988281-12.550781l-6.875-7.023437c1.242187-2.292969 2.371094-4.632813 3.394531-7.003907h238.167969c4.140625 0 7.5-3.359375 7.5-7.5 0-4.144531-3.359375-7.5-7.5-7.5h-233.1875c2.46875-10.464843 3.03125-21.289062 1.722656-31.921875h250.539062c5.789063 0 10.5-4.710937 10.5-10.5v-134.410156c0-5.789062-4.710937-10.5-10.5-10.5h-28.835937c-5.789063 0-10.5 4.710938-10.5 10.5v129.910156h-4.21875v-102.269531c0-5.789063-4.710937-10.5-10.5-10.5h-28.835937c-5.789063 0-10.5 4.710937-10.5 10.5v102.269531h-4.535157v-129.507812c0-4.140625-3.355469-7.5-7.5-7.5s-7.5 3.359375-7.5 7.5v129.507812h-19.835937v-180.6875h19.835937v16.179688c0 4.144531 3.355469 7.5 7.5 7.5s7.5-3.355469 7.5-7.5v-20.679688c0-5.792968-4.710937-10.503906-10.5-10.503906h-28.835937c-5.789063 0-10.5 4.710938-10.5 10.503906v185.1875h-4.222656v-155.339844c0-5.789062-4.707032-10.5-10.5-10.5h-28.835938c-5.789062 0-10.5 4.710938-10.5 10.5v155.339844h-4.21875v-129.910156c0-5.789062-4.710938-10.5-10.5-10.5h-28.835938c-5.789062 0-10.5 4.710938-10.5 10.5v123.550781c-1.226562-3.183593-2.621093-6.3125-4.21875-9.367187v-86.542969c0-5.792969-4.710937-10.503906-10.5-10.503906h-28.835937c-5.789063 0-10.5 4.710937-10.5 10.503906v43.632813c-1.394531-.480469-2.800781-.921876-4.21875-1.332032v-65.773437c0-5.792969-4.710937-10.503907-10.5-10.503907h-28.835937c-5.789063 0-10.5 4.710938-10.5 10.503907v65.832031c-10.089844 2.941406-19.578126 7.648438-28.074219 14v-209.28125h338.75v48.613281c0 6.890625 5.605469 12.5 12.5 12.5h79.382812v241h-22.648437c-4.140625 0-7.5 3.355469-7.5 7.5 0 4.140625 3.359375 7.5 7.5 7.5h25.148437c6.890625 0 12.5-5.609375 12.5-12.5v-243.5h17.855469c6.890625 0 12.5-5.609375 12.5-12.5v-84.019531c0-6.890625-5.609375-12.5-12.5-12.5zm-95.765625 177.6875h19.835937v125.410156h-19.835937zm-54.054687 27.640625h19.835937v97.769531h-19.835937zm-108.429688-53.070313h19.835938v150.839844h-19.835938zm-54.054688 25.429688h19.835938v125.410156h-19.835938zm-40.308593 225.160156-2.925781-2.988281c2.855468-2.25 5.613281-4.667969 8.21875-7.285156 2.453124-2.46875 4.710937-5.054688 6.820312-7.722657l2.898438 2.964844zm20.820312.382813 54.582031 54.890625-4.984374 5.015625-54.59375-54.902344zm-34.566406-197.902344h19.835937v61.363281c-.269531-.277344-.523437-.566406-.796874-.84375-5.746094-5.777344-12.15625-10.644531-19.039063-14.582031zm-54.054687-23.472656h19.835937v58.3125c-3.238281-.351563-6.507813-.546875-9.8125-.546875-3.375 0-6.71875.207031-10.023437.574218zm-42.40625 94.570312c13.984374-14.0625 32.605468-21.804687 52.433593-21.804687s38.445313 7.742187 52.429688 21.804687c28.945312 29.105469 28.945312 76.460938 0 105.570313-13.980469 14.058594-32.601563 21.804687-52.429688 21.804687s-38.449219-7.746093-52.429687-21.804687c-28.945313-29.109375-28.945313-76.464844-.003906-105.570313zm460.320312-182.40625h-107.238281v-79.019531h107.238281zm0 0"/><path d="m410.140625 40.765625h66.476563c4.144531 0 7.5-3.359375 7.5-7.5s-3.355469-7.5-7.5-7.5h-66.476563c-4.140625 0-7.5 3.359375-7.5 7.5s3.359375 7.5 7.5 7.5zm0 0"/><path d="m410.140625 62.507812h66.476563c4.144531 0 7.5-3.355468 7.5-7.5 0-4.140624-3.355469-7.5-7.5-7.5h-66.476563c-4.140625 0-7.5 3.359376-7.5 7.5 0 4.144532 3.359375 7.5 7.5 7.5zm0 0"/><path d="m410.140625 84.253906h29.703125c4.144531 0 7.5-3.359375 7.5-7.5 0-4.144531-3.355469-7.5-7.5-7.5h-29.703125c-4.140625 0-7.5 3.355469-7.5 7.5 0 4.140625 3.359375 7.5 7.5 7.5zm0 0"/><path d="m42.328125 376.695312c12.496094 12.5625 29.109375 19.480469 46.785156 19.480469 17.671875 0 34.285157-6.917969 46.777344-19.480469 3.824219-3.84375 7.160156-8.132812 9.921875-12.746093 2.128906-3.550781.972656-8.160157-2.582031-10.285157-3.554688-2.128906-8.160157-.972656-10.289063 2.582032-2.136718 3.570312-4.722656 6.890625-7.6875 9.871094-9.65625 9.710937-22.492187 15.058593-36.140625 15.058593-13.652343 0-26.492187-5.347656-36.148437-15.058593-19.960938-20.074219-19.960938-52.738282 0-72.816407 9.660156-9.710937 22.496094-15.058593 36.148437-15.058593 13.648438 0 26.484375 5.347656 36.144531 15.058593 8.621094 8.671875 13.890626 20.167969 14.835938 32.375.320312 4.132813 3.925781 7.207031 8.058594 6.898438 4.128906-.320313 7.21875-3.925781 6.894531-8.058594-1.21875-15.757813-8.023437-30.597656-19.152344-41.789063-12.496093-12.566406-29.105469-19.484374-46.78125-19.484374s-34.289062 6.917968-46.785156 19.484374c-25.761719 25.90625-25.761719 68.0625 0 93.96875zm0 0"/></svg>