<?xml version="1.0" encoding="UTF-8"?>
<!DOCTYPE svg PUBLIC "-//W3C//DTD SVG 1.1//EN" "http://www.w3.org/Graphics/SVG/1.1/DTD/svg11.dtd">
<!-- Creator: CorelDRAW 2020 (64-Bit) -->
<svg xmlns="http://www.w3.org/2000/svg" xml:space="preserve" width="200px" height="200px" version="1.1" style="shape-rendering:geometricPrecision; text-rendering:geometricPrecision; image-rendering:optimizeQuality; fill-rule:evenodd; clip-rule:evenodd"
viewBox="0 0 2.2 2.2"
 xmlns:xlink="http://www.w3.org/1999/xlink"
 xmlns:xodm="http://www.corel.com/coreldraw/odm/2003">
 <defs>
  <style type="text/css">
   <![CDATA[
    .fil0 {fill:none}
    .fil4 {fill:#057195}
    .fil1 {fill:#0E80AC}
    .fil8 {fill:#3C5959}
    .fil6 {fill:#ECC52E}
    .fil7 {fill:#F1FAFF}
    .fil3 {fill:#F3D332}
    .fil5 {fill:#FA6931}
    .fil2 {fill:#FD7E42}
   ]]>
  </style>
 </defs>
 <g id="Capa_x0020_1">
  <metadata id="CorelCorpID_0Corel-Layer"/>
  <rect class="fil0" width="2.2" height="2.2"/>
  <g id="_1834142007584">
   <rect class="fil1" x="0.17" y="0.13" width="0.62" height="1.93" rx="0.09" ry="0.1"/>
   <rect class="fil2" x="0.79" y="0.13" width="0.62" height="1.93" rx="0.09" ry="0.1"/>
   <rect class="fil3" x="1.41" y="0.13" width="0.62" height="1.93" rx="0.09" ry="0.1"/>
   <path class="fil4" d="M0.66 0.22l0 1.76c0,0.05 -0.04,0.09 -0.09,0.09l0.13 0c0.05,0 0.09,-0.04 0.09,-0.09l0 -1.76c0,-0.05 -0.04,-0.09 -0.09,-0.09l-0.13 0c0.05,0 0.09,0.04 0.09,0.09z"/>
   <path class="fil5" d="M1.28 0.22l0 1.76c0,0.05 -0.04,0.09 -0.09,0.09l0.13 0c0.05,0 0.09,-0.04 0.09,-0.09l0 -1.76c0,-0.05 -0.04,-0.09 -0.09,-0.09l-0.13 0c0.05,0 0.09,0.04 0.09,0.09z"/>
   <path class="fil6" d="M1.9 0.22l0 1.76c0,0.05 -0.04,0.09 -0.09,0.09l0.13 0c0.05,0 0.09,-0.04 0.09,-0.09l0 -1.76c0,-0.05 -0.04,-0.09 -0.09,-0.09l-0.13 0c0.05,0 0.09,0.04 0.09,0.09z"/>
   <rect class="fil7" x="0.3" y="0.26" width="0.35" height="0.81" rx="0.04" ry="0.04"/>
   <rect class="fil7" x="0.92" y="0.26" width="0.35" height="0.81" rx="0.04" ry="0.04"/>
   <rect class="fil7" x="1.53" y="0.26" width="0.35" height="0.81" rx="0.04" ry="0.04"/>
   <rect class="fil1" x="0.37" y="0.4" width="0.2" height="0.06" rx="0.03" ry="0.03"/>
   <rect class="fil1" x="0.99" y="0.4" width="0.2" height="0.06" rx="0.03" ry="0.03"/>
   <rect class="fil1" x="1.61" y="0.4" width="0.2" height="0.06" rx="0.03" ry="0.03"/>
   <rect class="fil1" x="0.37" y="0.55" width="0.2" height="0.06" rx="0.03" ry="0.03"/>
   <rect class="fil1" x="0.99" y="0.55" width="0.2" height="0.06" rx="0.03" ry="0.03"/>
   <rect class="fil1" x="1.61" y="0.55" width="0.2" height="0.06" rx="0.03" ry="0.03"/>
   <circle class="fil7" cx="0.48" cy="1.7" r="0.2"/>
   <circle class="fil7" cx="1.09" cy="1.7" r="0.2"/>
   <circle class="fil7" cx="1.71" cy="1.7" r="0.2"/>
   <circle class="fil8" cx="0.48" cy="1.7" r="0.08"/>
   <circle class="fil8" cx="1.09" cy="1.7" r="0.08"/>
   <circle class="fil8" cx="1.71" cy="1.7" r="0.08"/>
  </g>
 </g>
</svg>
