<svg id="Bill-Payment-Purchase-Shopping-Marketing" height="512" viewBox="0 0 64 64" width="512" xmlns="http://www.w3.org/2000/svg"><path d="m45 3v58l-3-4-3 4-3-4-3 4-3-4-3 4-3-4-3 4-3-4-3 4-2.57-3.43-.43-.57-3 4-3-4-3 4v-58l3 4 3-4 3 4 3-4 3 4 3-4 3 4 3-4 3 4 3-4 3 4 3-4 3 4z" fill="#e6e7e8"/><path d="m45 25v36l-3-4-3 4-3-4-3 4-3-4-3 4-3-4-3 4-3-4-3 4-2.57-3.43z" fill="#e0e0e2"/><circle cx="45" cy="24" fill="#ffd422" r="9"/><path d="m55 40a2.006 2.006 0 0 1 2 2v1h-9.4c.01-.13.02-.27.02-.4a2.982 2.982 0 0 0 -1.5-2.6z" fill="#ffb655"/><path d="m45 37v2.35l-4.07-2.35z" fill="#ffa733"/><path d="m45 45.57v3.43h-11l-5-4h-2v-12h6.95.05l6.93 4 4.07 2.35z" fill="#ffc477"/><path d="m52 37h-11.07l4.07 2.35 1.12.65h7.88v-1a2.006 2.006 0 0 0 -2-2z" fill="#ffa733"/><path d="m60.12 43.88a2.993 2.993 0 0 0 -2.12-.88h-10.4c.01-.13.02-.27.02-.4a2.982 2.982 0 0 0 -1.5-2.6l-1.12-.65-4.07-2.35-6.93-4h-7v12h2l5 4h24a3 3 0 0 0 2.12-5.12z" fill="#ffc477"/><path d="m27 45v2h-8v-4-12h8v2z" fill="#3d9ae2"/><path d="m44.617 46.6a3.969 3.969 0 0 1 -1.993-.535l-8.13-4.694 1-1.732 8.13 4.694a2 2 0 1 0 2-3.464l-11.892-6.869h-6.732v-2h6.95a1.189 1.189 0 0 1 .55.134l12.124 7a4 4 0 0 1 -2.007 7.466z" fill="#ffb655"/><path d="m46 23h-2a1 1 0 0 1 0-2h2a1 1 0 0 1 1 1h2a3 3 0 0 0 -3-3v-1h-2v1a3 3 0 0 0 0 6h2a1 1 0 0 1 0 2h-2a1 1 0 0 1 -1-1h-2a3 3 0 0 0 3 3v1h2v-1a3 3 0 0 0 0-6z" fill="#ed1c24"/><g fill="#bcbec0"><path d="m6 30h4v2h-4z"/><path d="m12 30h4v2h-4z"/><path d="m6 34h4v2h-4z"/><path d="m12 34h4v2h-4z"/><path d="m6 22h4v2h-4z"/><path d="m12 22h20v2h-20z"/><path d="m6 26h4v2h-4z"/><path d="m12 26h20v2h-20z"/><path d="m6 38h4v2h-4z"/><path d="m12 38h4v2h-4z"/><path d="m6 42h4v2h-4z"/><path d="m12 42h4v2h-4z"/><path d="m6 46h4v2h-4z"/><path d="m12 46h4v2h-4z"/><path d="m6 50h4v2h-4z"/><path d="m12 50h18v2h-18z"/><path d="m6 12h10v2h-10z"/><path d="m6 16h16v2h-16z"/><path d="m18 12h4v2h-4z"/></g></svg>