<?xml version="1.0" encoding="UTF-8"?>
<!DOCTYPE svg PUBLIC "-//W3C//DTD SVG 1.1//EN" "http://www.w3.org/Graphics/SVG/1.1/DTD/svg11.dtd">
<!-- Creator: CorelDRAW 2020 (64-Bit) -->
<svg xmlns="http://www.w3.org/2000/svg" xml:space="preserve" width="33.8667mm" height="5.2525mm" version="1.1" style="shape-rendering:geometricPrecision; text-rendering:geometricPrecision; image-rendering:optimizeQuality; fill-rule:evenodd; clip-rule:evenodd"
viewBox="0 0 52.33 8.12"
 xmlns:xlink="http://www.w3.org/1999/xlink"
 xmlns:xodm="http://www.corel.com/coreldraw/odm/2003">
 <defs>
  <style type="text/css">
   <![CDATA[
    .fil3 {fill:#1C1C40}
    .fil2 {fill:#2871FC}
    .fil4 {fill:#F3F3F3}
    .fil5 {fill:#FDFDFD}
    .fil1 {fill:#1C1C40;fill-rule:nonzero}
    .fil0 {fill:#2871FC;fill-rule:nonzero}
   ]]>
  </style>
 </defs>
 <g id="Capa_x0020_1">
  <metadata id="CorelCorpID_0Corel-Layer"/>
  <g id="_2629461769488">
   <path class="fil0" d="M13.57 2.97c-0.28,-0.17 -0.57,-0.31 -0.87,-0.4 -0.3,-0.09 -0.56,-0.14 -0.78,-0.14 -0.25,0 -0.45,0.05 -0.6,0.14 -0.15,0.09 -0.22,0.23 -0.22,0.39 0,0.15 0.05,0.28 0.15,0.38 0.1,0.1 0.23,0.19 0.39,0.25 0.15,0.07 0.37,0.14 0.63,0.22 0.37,0.11 0.68,0.22 0.92,0.33 0.24,0.11 0.44,0.27 0.61,0.49 0.17,0.21 0.25,0.5 0.25,0.85 0,0.34 -0.09,0.63 -0.27,0.88 -0.18,0.25 -0.43,0.44 -0.75,0.57 -0.32,0.13 -0.68,0.2 -1.09,0.2 -0.43,0 -0.85,-0.08 -1.26,-0.24 -0.41,-0.16 -0.77,-0.37 -1.07,-0.64l0.44 -0.9c0.28,0.26 0.59,0.46 0.94,0.61 0.35,0.15 0.67,0.22 0.97,0.22 0.29,0 0.52,-0.06 0.69,-0.17 0.17,-0.11 0.25,-0.27 0.25,-0.46 0,-0.16 -0.05,-0.29 -0.15,-0.39 -0.1,-0.1 -0.23,-0.18 -0.39,-0.25 -0.16,-0.06 -0.37,-0.13 -0.64,-0.21 -0.37,-0.11 -0.68,-0.22 -0.91,-0.32 -0.24,-0.1 -0.44,-0.26 -0.61,-0.48 -0.17,-0.21 -0.25,-0.49 -0.25,-0.84 0,-0.32 0.09,-0.6 0.26,-0.84 0.17,-0.24 0.41,-0.42 0.72,-0.55 0.31,-0.13 0.67,-0.2 1.08,-0.2 0.36,0 0.71,0.05 1.06,0.16 0.35,0.1 0.66,0.25 0.93,0.42l-0.42 0.92zm1.44 -0.12l1.02 0 0 4.21 -1.02 0 0 -4.21zm0.5 -1.81c0.17,0 0.31,0.06 0.42,0.17 0.11,0.12 0.17,0.26 0.17,0.44 0,0.17 -0.06,0.32 -0.17,0.43 -0.11,0.12 -0.25,0.17 -0.42,0.17 -0.17,0 -0.31,-0.06 -0.42,-0.17 -0.11,-0.12 -0.17,-0.26 -0.17,-0.43 0,-0.18 0.06,-0.32 0.17,-0.44 0.11,-0.12 0.25,-0.17 0.42,-0.17zm4.28 2.95c-0.2,-0.12 -0.42,-0.21 -0.63,-0.28 -0.22,-0.07 -0.42,-0.1 -0.6,-0.1 -0.17,0 -0.31,0.03 -0.41,0.09 -0.1,0.06 -0.15,0.15 -0.15,0.28 0,0.13 0.06,0.23 0.19,0.3 0.13,0.07 0.33,0.15 0.61,0.22 0.29,0.09 0.53,0.18 0.72,0.26 0.19,0.09 0.35,0.21 0.49,0.39 0.14,0.17 0.21,0.39 0.21,0.67 0,0.41 -0.16,0.72 -0.47,0.94 -0.31,0.22 -0.71,0.33 -1.19,0.33 -0.33,0 -0.64,-0.05 -0.95,-0.15 -0.31,-0.1 -0.57,-0.25 -0.79,-0.44l0.35 -0.72c0.19,0.16 0.41,0.29 0.68,0.38 0.26,0.09 0.51,0.14 0.75,0.14 0.19,0 0.34,-0.03 0.45,-0.1 0.11,-0.07 0.17,-0.16 0.17,-0.29 0,-0.15 -0.07,-0.26 -0.2,-0.33 -0.13,-0.07 -0.34,-0.15 -0.64,-0.24 -0.28,-0.08 -0.51,-0.17 -0.69,-0.25 -0.18,-0.08 -0.33,-0.2 -0.46,-0.37 -0.13,-0.17 -0.2,-0.38 -0.2,-0.65 0,-0.41 0.15,-0.73 0.45,-0.95 0.3,-0.22 0.68,-0.33 1.14,-0.33 0.28,0 0.55,0.04 0.82,0.12 0.27,0.08 0.51,0.19 0.72,0.33l-0.37 0.74z"/>
   <path class="fil1" d="M20.49 1.54l4.84 0 0 1.31 -1.6 0 0 4.21 -1.64 0 0 -4.21 -1.6 0 0 -1.31zm6.89 1.91c0.15,-0.24 0.34,-0.42 0.57,-0.55 0.23,-0.13 0.49,-0.19 0.77,-0.19l0 1.43c-0.06,-0.01 -0.15,-0.02 -0.28,-0.02 -0.33,0 -0.59,0.08 -0.78,0.24 -0.19,0.16 -0.29,0.37 -0.29,0.64l0 2.04 -1.59 0 0 -4.28 1.59 0 0 0.68zm3.82 -0.74c0.6,0 1.07,0.14 1.41,0.41 0.34,0.28 0.51,0.66 0.51,1.15l0 2.78 -1.56 0 0 -0.47c-0.13,0.17 -0.3,0.31 -0.51,0.4 -0.21,0.09 -0.46,0.14 -0.74,0.14 -0.45,0 -0.8,-0.12 -1.06,-0.37 -0.26,-0.24 -0.39,-0.57 -0.39,-0.98 0,-0.41 0.14,-0.73 0.42,-0.96 0.28,-0.22 0.69,-0.34 1.23,-0.34l1.05 0 0 -0.02c0,-0.18 -0.06,-0.32 -0.19,-0.42 -0.13,-0.1 -0.31,-0.15 -0.55,-0.15 -0.17,0 -0.37,0.03 -0.6,0.08 -0.23,0.05 -0.46,0.13 -0.69,0.23l-0.39 -1.05c0.72,-0.29 1.41,-0.44 2.06,-0.44zm-0.36 3.37c0.16,0 0.31,-0.04 0.44,-0.12 0.13,-0.08 0.23,-0.19 0.28,-0.32l0 -0.39 -0.72 0c-0.32,0 -0.48,0.13 -0.48,0.4 0,0.14 0.04,0.24 0.13,0.31 0.08,0.07 0.2,0.11 0.35,0.11zm8.89 -3.37c0.3,0 0.56,0.07 0.79,0.2 0.23,0.13 0.41,0.32 0.53,0.57 0.13,0.25 0.19,0.53 0.19,0.86l0 2.71 -1.59 0 0 -2.26c0,-0.21 -0.05,-0.38 -0.16,-0.5 -0.11,-0.13 -0.25,-0.19 -0.43,-0.19 -0.2,0.01 -0.37,0.08 -0.49,0.24 -0.12,0.15 -0.18,0.35 -0.18,0.6l0 2.11 -1.59 0 0 -2.26c0,-0.21 -0.05,-0.38 -0.16,-0.5 -0.11,-0.13 -0.25,-0.19 -0.43,-0.19 -0.2,0.01 -0.37,0.08 -0.49,0.24 -0.12,0.15 -0.18,0.35 -0.18,0.6l0 2.11 -1.59 0 0 -4.28 1.59 0 0 0.65c0.15,-0.23 0.33,-0.41 0.56,-0.53 0.23,-0.12 0.48,-0.18 0.77,-0.18 0.33,0 0.62,0.08 0.86,0.24 0.25,0.16 0.43,0.39 0.54,0.68 0.14,-0.3 0.33,-0.53 0.58,-0.69 0.25,-0.16 0.54,-0.24 0.87,-0.24zm2.36 0.06l1.59 0 0 4.28 -1.59 0 0 -4.28zm0.79 -2.04c0.24,0 0.44,0.08 0.59,0.23 0.15,0.15 0.23,0.35 0.23,0.59 0,0.24 -0.08,0.44 -0.23,0.59 -0.15,0.15 -0.35,0.23 -0.59,0.23 -0.24,0 -0.44,-0.08 -0.59,-0.23 -0.15,-0.15 -0.23,-0.35 -0.23,-0.59 0,-0.24 0.08,-0.44 0.23,-0.59 0.15,-0.15 0.35,-0.23 0.59,-0.23zm4.69 6.11c-0.15,0.08 -0.34,0.15 -0.55,0.2 -0.22,0.05 -0.44,0.07 -0.66,0.07 -0.46,0 -0.82,-0.13 -1.09,-0.38 -0.27,-0.25 -0.41,-0.59 -0.41,-1.03l0 -1.71 -0.59 0 0 -1.01 0.59 0 0 -1.19 1.58 0 0 1.19 1.05 0 0 1.01 -1.05 0 0 1.46c0,0.14 0.03,0.24 0.09,0.31 0.06,0.07 0.15,0.1 0.27,0.1 0.1,0 0.26,-0.04 0.49,-0.13l0.28 1.09zm2.52 -4.13c0.7,0 1.25,0.21 1.64,0.62 0.39,0.42 0.59,0.99 0.59,1.71 0,0.11 -0,0.19 -0.01,0.24l-2.88 0c0.06,0.2 0.17,0.36 0.31,0.47 0.14,0.11 0.32,0.17 0.52,0.17 0.33,0 0.64,-0.14 0.94,-0.41l0.83 0.81c-0.23,0.25 -0.5,0.44 -0.82,0.57 -0.32,0.13 -0.68,0.2 -1.08,0.2 -0.47,0 -0.88,-0.09 -1.23,-0.27 -0.35,-0.18 -0.61,-0.43 -0.8,-0.76 -0.19,-0.33 -0.28,-0.71 -0.28,-1.14 0,-0.44 0.09,-0.83 0.28,-1.16 0.19,-0.33 0.45,-0.59 0.79,-0.77 0.34,-0.18 0.73,-0.28 1.18,-0.28zm0.66 1.8c0.01,-0.21 -0.05,-0.38 -0.17,-0.52 -0.12,-0.14 -0.28,-0.2 -0.47,-0.2 -0.18,0 -0.34,0.07 -0.46,0.2 -0.12,0.13 -0.2,0.31 -0.24,0.53l1.34 0z"/>
  </g>
  <g id="_2629461771264">
   <g>
    <rect class="fil2" x="6.31" y="0.19" width="2.25" height="7.92" rx="0.26" ry="0.27"/>
    <rect class="fil3" x="6.65" y="0.5" width="1.55" height="0.45" rx="0.15" ry="0.15"/>
    <rect class="fil3" x="6.65" y="1.24" width="1.57" height="3.83" rx="0.16" ry="0.16"/>
    <rect class="fil4" x="6.73" y="1.32" width="1.4" height="3.66" rx="0.14" ry="0.15"/>
    <rect class="fil3" x="7" y="1.66" width="0.86" height="0.62" rx="0.08" ry="0.08"/>
    <rect class="fil3" x="6.98" y="3.55" width="0.9" height="0.23" rx="0.05" ry="0.05"/>
    <rect class="fil3" x="6.98" y="3.98" width="0.9" height="0.23" rx="0.05" ry="0.05"/>
    <rect class="fil3" x="6.98" y="4.4" width="0.9" height="0.23" rx="0.05" ry="0.05"/>
    <circle class="fil5" cx="7.43" cy="6.52" r="0.64"/>
    <circle class="fil3" cx="7.43" cy="6.52" r="0.38"/>
   </g>
   <g>
    <rect class="fil2" x="3.98" y="0.19" width="2.25" height="7.92" rx="0.26" ry="0.27"/>
    <rect class="fil3" x="4.32" y="0.5" width="1.55" height="0.45" rx="0.15" ry="0.15"/>
    <rect class="fil3" x="4.31" y="1.24" width="1.57" height="3.83" rx="0.16" ry="0.16"/>
    <rect class="fil4" x="4.4" y="1.32" width="1.4" height="3.66" rx="0.14" ry="0.15"/>
    <rect class="fil3" x="4.67" y="1.66" width="0.86" height="0.62" rx="0.08" ry="0.08"/>
    <rect class="fil3" x="4.65" y="3.55" width="0.9" height="0.23" rx="0.05" ry="0.05"/>
    <rect class="fil3" x="4.65" y="3.98" width="0.9" height="0.23" rx="0.05" ry="0.05"/>
    <rect class="fil3" x="4.65" y="4.4" width="0.9" height="0.23" rx="0.05" ry="0.05"/>
    <circle class="fil5" cx="5.1" cy="6.52" r="0.64"/>
    <circle class="fil3" cx="5.1" cy="6.52" r="0.38"/>
   </g>
   <g>
    <rect class="fil2" transform="matrix(-0.0317131 -0.00742642 -0.00775213 0.0331038 3.9408 0.459896)" width="69" height="232.85" rx="8.02" ry="8.02"/>
    <rect class="fil3" transform="matrix(-0.0332909 -0.0077959 -0.00779593 0.0332908 3.53319 0.680243)" width="45.46" height="13.08" rx="4.25" ry="4.25"/>
    <rect class="fil3" transform="matrix(-0.0332909 -0.0077959 -0.00779593 0.0332908 3.37308 1.40072)" width="45.95" height="112.01" rx="4.7" ry="4.7"/>
    <rect class="fil4" transform="matrix(-0.0296183 -0.00693586 -0.00746002 0.0318564 3.26989 1.4613)" width="45.95" height="112.01" rx="4.7" ry="4.7"/>
    <rect class="fil3" transform="matrix(-0.0303187 -0.00709988 -0.0070999 0.0303186 2.92851 1.72983)" width="27.47" height="19.95" rx="2.42" ry="2.42"/>
    <rect class="fil3" transform="matrix(-0.0332909 -0.0077959 -0.00779593 0.0332908 2.51807 3.58062)" width="26.33" height="6.79" rx="1.47" ry="1.47"/>
    <rect class="fil3" transform="matrix(-0.0332909 -0.0077959 -0.00779593 0.0332908 2.42214 3.99026)" width="26.33" height="6.79" rx="1.47" ry="1.47"/>
    <rect class="fil3" transform="matrix(-0.0332909 -0.0077959 -0.00779593 0.0332908 2.32621 4.3999)" width="26.33" height="6.79" rx="1.47" ry="1.47"/>
    <circle class="fil5" transform="matrix(-0.0355557 -0.00832627 -0.00832629 0.0355556 1.40447 6.36209)" r="17.5"/>
    <circle class="fil3" transform="matrix(-0.0211739 -0.00495841 -0.00495842 0.0211739 1.40447 6.36209)" r="17.5"/>
   </g>
  </g>
 </g>
</svg>
