<?xml version="1.0" encoding="UTF-8"?>
<!DOCTYPE svg PUBLIC "-//W3C//DTD SVG 1.1//EN" "http://www.w3.org/Graphics/SVG/1.1/DTD/svg11.dtd">
<!-- Creator: CorelDRAW 2018 (64 Bit Versión de evaluación) -->
<svg xmlns="http://www.w3.org/2000/svg" xml:space="preserve" width="8.2694mm" height="8.2694mm" version="1.1" style="shape-rendering:geometricPrecision; text-rendering:geometricPrecision; image-rendering:optimizeQuality; fill-rule:evenodd; clip-rule:evenodd"
viewBox="0 0 12.42 12.42"
 xmlns:xlink="http://www.w3.org/1999/xlink">
 <defs>
  <style type="text/css">
   <![CDATA[
    .str0 {stroke:#2871FC;stroke-width:0.15;stroke-miterlimit:22.9256}
    .fil4 {fill:none}
    .fil1 {fill:#2871FC}
    .fil0 {fill:white}
    .fil3 {fill:#1C1C40;fill-rule:nonzero}
    .fil2 {fill:#2871FC;fill-rule:nonzero}
   ]]>
  </style>
 </defs>
 <g id="Capa_x0020_1">
  <metadata id="CorelCorpID_0Corel-Layer"/>
  <g id="_1828847455920">
   <path class="fil0" d="M1.9 10.56l8.61 0c0.34,0 0.65,-0.14 0.88,-0.37 0.23,-0.23 0.37,-0.54 0.37,-0.88 0,-0.32 -0.12,-0.61 -0.32,-0.83 -0.2,-0.22 -0.48,-0.37 -0.79,-0.41l-0.1 -0.01 0.03 -0.1c0.01,-0.05 0.03,-0.11 0.03,-0.16 0.01,-0.05 0.01,-0.11 0.01,-0.17 0,-0.34 -0.14,-0.65 -0.37,-0.88 -0.23,-0.23 -0.54,-0.37 -0.88,-0.37l-0.25 0 -0.03 -0.03c-0.33,-0.35 -0.77,-0.64 -1.27,-0.83 -0.49,-0.19 -1.04,-0.3 -1.62,-0.3 -0.59,0 -1.14,0.11 -1.62,0.3 -0.5,0.2 -0.94,0.48 -1.27,0.83l-0.03 0.03 -0.25 0c-0.34,0 -0.65,0.14 -0.88,0.37 -0.23,0.23 -0.37,0.54 -0.37,0.88 0,0.06 0,0.11 0.01,0.17 0.01,0.06 0.02,0.11 0.03,0.16l0.03 0.1 -0.1 0.01c-0.31,0.03 -0.59,0.19 -0.79,0.41 -0.2,0.22 -0.32,0.51 -0.32,0.83 0,0.34 0.14,0.65 0.37,0.88 0.23,0.23 0.54,0.37 0.88,0.37z"/>
   <g>
    <g>
     <path class="fil1" d="M3.14 5.12l1.67 -0.53 0 2.92c-0.1,0.1 -0.18,0.2 -0.25,0.32 -0.2,-0.1 -0.43,-0.16 -0.67,-0.16 -0.27,0 -0.52,0.07 -0.74,0.19l0 -2.74z"/>
     <path class="fil1" d="M5.37 3.67l1.67 -0.53 0 4.14c-0.28,-0.18 -0.61,-0.28 -0.97,-0.28 -0.25,0 -0.48,0.05 -0.7,0.14l0 -3.46z"/>
     <path class="fil1" d="M7.61 2.21l1.67 -0.53 0 6.38c-0.23,-0.18 -0.51,-0.28 -0.82,-0.28 -0.28,0 -0.54,0.09 -0.76,0.24 -0.03,-0.05 -0.05,-0.11 -0.09,-0.16l0 -5.65z"/>
     <path class="fil2" d="M2.57 8.27c0.15,-0.21 0.34,-0.39 0.57,-0.51 0.22,-0.12 0.47,-0.18 0.74,-0.18 0.13,0 0.25,0.01 0.37,0.04 0.1,0.02 0.19,0.05 0.28,0.09 0.17,-0.24 0.39,-0.44 0.64,-0.58 0.27,-0.15 0.58,-0.23 0.91,-0.23 0.37,0 0.71,0.11 1,0.29 0.27,0.17 0.5,0.41 0.65,0.7 0.09,-0.06 0.19,-0.1 0.3,-0.13 0.13,-0.04 0.28,-0.06 0.42,-0.06 0.23,0 0.45,0.05 0.64,0.15 0.2,0.1 0.37,0.25 0.51,0.42l-0.14 0.1c-0.12,-0.16 -0.27,-0.28 -0.44,-0.37 -0.17,-0.08 -0.36,-0.13 -0.56,-0.13 -0.13,0 -0.25,0.02 -0.37,0.06 -0.12,0.04 -0.24,0.09 -0.34,0.16l-0.08 0.06 -0.04 -0.09c-0.14,-0.29 -0.36,-0.54 -0.63,-0.71 -0.26,-0.17 -0.58,-0.26 -0.91,-0.26 -0.3,0 -0.58,0.08 -0.82,0.21 -0.25,0.14 -0.47,0.34 -0.62,0.59l-0.04 0.07 -0.07 -0.04c-0.1,-0.05 -0.2,-0.09 -0.31,-0.11 -0.1,-0.03 -0.21,-0.04 -0.33,-0.04 -0.24,0 -0.46,0.06 -0.65,0.16 -0.2,0.11 -0.38,0.26 -0.51,0.45l-0.15 -0.1z"/>
    </g>
    <path class="fil3" d="M0.78 9.98l1.18 -0.66c-0.01,-0.03 -0.01,-0.05 -0.01,-0.08 0,-0.09 0.04,-0.18 0.1,-0.24l0 -0c0.06,-0.06 0.15,-0.1 0.24,-0.1 0.09,0 0.18,0.04 0.24,0.1l0 0c0.06,0.06 0.1,0.14 0.1,0.23l1.29 0.27c0.02,-0.04 0.04,-0.08 0.08,-0.11l0 -0c0.06,-0.06 0.15,-0.1 0.24,-0.1 0.04,0 0.08,0.01 0.12,0.02l0.61 -0.85c-0.05,-0.06 -0.07,-0.13 -0.07,-0.21 0,-0.09 0.04,-0.18 0.1,-0.24l0 -0c0.06,-0.06 0.15,-0.1 0.24,-0.1 0.09,0 0.18,0.04 0.24,0.1l0 0c0.06,0.06 0.1,0.15 0.1,0.24 0,0.03 -0,0.05 -0.01,0.08l1.38 0.77c0.01,-0.02 0.02,-0.03 0.04,-0.04l0 -0c0.06,-0.06 0.15,-0.1 0.24,-0.1 0.08,0 0.15,0.03 0.2,0.07l0.28 -0.26c-0.02,-0.04 -0.03,-0.09 -0.03,-0.14 0,-0.09 0.04,-0.18 0.1,-0.24l0 -0c0.06,-0.06 0.15,-0.1 0.24,-0.1 0.09,0 0.18,0.04 0.24,0.1l0 0c0.06,0.06 0.1,0.15 0.1,0.24 0,0.04 -0.01,0.08 -0.02,0.12l0.51 0.42 0 -0 0 -0c0.06,-0.06 0.15,-0.1 0.24,-0.1 0.09,0 0.18,0.04 0.24,0.1l0 0 0.01 0.01 1.53 -1.11c0.06,0.02 0.12,0.05 0.18,0.09l-1.63 1.18c0.01,0.02 0.01,0.05 0.01,0.07 0,0.09 -0.04,0.18 -0.1,0.24l-0 0c-0.06,0.06 -0.15,0.1 -0.24,0.1 -0.09,0 -0.18,-0.04 -0.24,-0.1l-0 -0c-0.06,-0.06 -0.1,-0.15 -0.1,-0.24 0,-0.03 0,-0.06 0.01,-0.08l-0.53 -0.44c-0.06,0.05 -0.13,0.07 -0.21,0.07 -0.07,0 -0.14,-0.02 -0.2,-0.06l-0.28 0.26c0.02,0.04 0.03,0.08 0.03,0.13 0,0.09 -0.04,0.18 -0.1,0.24l-0 0c-0.06,0.06 -0.15,0.1 -0.24,0.1 -0.09,0 -0.18,-0.04 -0.24,-0.1l-0 -0c-0.06,-0.06 -0.1,-0.15 -0.1,-0.24 0,-0.01 0,-0.02 0,-0.03l-1.41 -0.79 -0 0 -0 0c-0.06,0.06 -0.15,0.1 -0.24,0.1 -0.04,0 -0.09,-0.01 -0.12,-0.02l-0.61 0.84c0.05,0.06 0.08,0.13 0.08,0.21 0,0.09 -0.04,0.18 -0.1,0.24l-0 0c-0.06,0.06 -0.15,0.1 -0.24,0.1 -0.09,0 -0.18,-0.04 -0.24,-0.1l-0 -0c-0.05,-0.05 -0.08,-0.11 -0.09,-0.19l-1.31 -0.27c-0.02,0.03 -0.04,0.06 -0.06,0.08l-0 0c-0.06,0.06 -0.15,0.1 -0.24,0.1 -0.09,0 -0.18,-0.04 -0.24,-0.1l-0 -0 -0 -0 -1.14 0.64 -0 -0c-0.04,-0.04 -0.08,-0.09 -0.12,-0.14zm8.16 -0.69c-0.03,0.03 -0.05,0.07 -0.05,0.11 -0,0 -0,0.01 -0,0.01 0,0.1 0.08,0.17 0.17,0.17 0.1,0 0.17,-0.08 0.17,-0.17 0,-0 -0,-0.01 -0,-0.01 -0,-0.04 -0.02,-0.08 -0.05,-0.11 -0.03,-0.03 -0.07,-0.05 -0.12,-0.05 -0.05,0 -0.09,0.02 -0.12,0.05zm-6.66 0.12c0.06,0 0.11,-0.03 0.14,-0.07 0.02,-0.03 0.03,-0.06 0.03,-0.09 0,-0.01 -0,-0.01 -0,-0.02 -0.01,-0.08 -0.08,-0.14 -0.16,-0.14 -0.09,0 -0.16,0.07 -0.16,0.16 0,0.01 0,0.02 0,0.02 0.01,0.04 0.03,0.08 0.06,0.1 0.03,0.02 0.07,0.04 0.11,0.04zm1.8 0.15c-0.01,0.02 -0.02,0.04 -0.02,0.07 0,0.02 0,0.03 0.01,0.05 0.02,0.07 0.08,0.11 0.15,0.11 0.09,0 0.16,-0.07 0.16,-0.16 0,-0.03 -0.01,-0.06 -0.03,-0.09 -0.02,-0.03 -0.05,-0.06 -0.09,-0.07 -0.01,-0 -0.03,-0.01 -0.04,-0.01 -0.06,0 -0.12,0.04 -0.14,0.09zm1 -1.21c0.02,0.03 0.05,0.06 0.09,0.07 0.02,0 0.03,0.01 0.05,0.01 0.04,0 0.08,-0.02 0.11,-0.04 0.03,-0.03 0.05,-0.06 0.06,-0.1 0,-0.01 0,-0.02 0,-0.02 0,-0.09 -0.07,-0.17 -0.17,-0.17 -0.09,0 -0.17,0.07 -0.17,0.17 0,0.03 0.01,0.06 0.03,0.09zm1.99 0.85c-0.02,0.03 -0.03,0.07 -0.03,0.1 0,0.01 0,0.01 0,0.02 0.01,0.09 0.08,0.16 0.17,0.16 0.1,0 0.17,-0.08 0.17,-0.17 0,-0.01 -0,-0.03 -0.01,-0.04 -0.01,-0.04 -0.04,-0.08 -0.07,-0.1 -0.03,-0.02 -0.06,-0.03 -0.1,-0.03 -0.06,0 -0.11,0.03 -0.14,0.07zm0.76 -0.51c0.01,0.04 0.04,0.07 0.07,0.09 0.03,0.02 0.05,0.02 0.09,0.02 0.03,0 0.07,-0.01 0.09,-0.03 0.03,-0.02 0.06,-0.06 0.07,-0.1 0,-0.01 0.01,-0.03 0.01,-0.04 0,-0.09 -0.07,-0.17 -0.17,-0.17 -0.09,0 -0.17,0.07 -0.17,0.17 0,0.02 0,0.03 0.01,0.05z"/>
   </g>
   <path class="fil2" d="M10.77 7.92c0.32,0.06 0.6,0.22 0.8,0.45 0.23,0.25 0.36,0.58 0.36,0.94 0,0.39 -0.16,0.75 -0.42,1 -0.26,0.26 -0.61,0.42 -1,0.42l-8.61 0c-0.39,0 -0.75,-0.16 -1,-0.42 -0.26,-0.26 -0.42,-0.61 -0.42,-1 0,-0.36 0.14,-0.69 0.36,-0.94 0.21,-0.23 0.49,-0.39 0.8,-0.45 -0.01,-0.03 -0.01,-0.06 -0.02,-0.09 -0.01,-0.06 -0.01,-0.13 -0.01,-0.19 0,-0.39 0.16,-0.75 0.42,-1 0.26,-0.26 0.61,-0.42 1,-0.42l0.17 0c0.35,-0.36 0.79,-0.65 1.31,-0.85 0.51,-0.2 1.08,-0.31 1.69,-0.31 0.61,0 1.18,0.11 1.69,0.31 0.52,0.2 0.96,0.49 1.31,0.85l0.17 0c0.39,0 0.75,0.16 1,0.42 0.26,0.26 0.42,0.61 0.42,1 0,0.06 -0,0.13 -0.01,0.19 -0,0.03 -0.01,0.06 -0.02,0.09zm0.67 0.57c-0.2,-0.22 -0.48,-0.37 -0.79,-0.41l-0.1 -0.01 0.03 -0.1c0.01,-0.05 0.03,-0.11 0.03,-0.16 0.01,-0.05 0.01,-0.11 0.01,-0.17 0,-0.34 -0.14,-0.65 -0.37,-0.88 -0.23,-0.23 -0.54,-0.37 -0.88,-0.37l-0.25 0 -0.03 -0.03c-0.33,-0.35 -0.77,-0.64 -1.27,-0.83 -0.49,-0.19 -1.04,-0.3 -1.62,-0.3 -0.59,0 -1.14,0.11 -1.62,0.3 -0.5,0.2 -0.94,0.48 -1.27,0.83l-0.03 0.03 -0.25 0c-0.34,0 -0.65,0.14 -0.88,0.37 -0.23,0.23 -0.37,0.54 -0.37,0.88 0,0.06 0,0.11 0.01,0.17 0.01,0.06 0.02,0.11 0.03,0.16l0.03 0.1 -0.1 0.01c-0.31,0.03 -0.59,0.19 -0.79,0.41 -0.2,0.22 -0.32,0.51 -0.32,0.83 0,0.34 0.14,0.65 0.37,0.88 0.23,0.23 0.54,0.37 0.88,0.37l8.61 0c0.34,0 0.65,-0.14 0.88,-0.37 0.23,-0.23 0.37,-0.54 0.37,-0.88 0,-0.32 -0.12,-0.61 -0.32,-0.83z"/>
  </g>
  <rect class="fil4 str0" x="0.08" y="0.08" width="12.27" height="12.27" rx="1.6" ry="1.6"/>
 </g>
</svg>
