<?xml version="1.0" encoding="UTF-8"?>
<!DOCTYPE svg PUBLIC "-//W3C//DTD SVG 1.1//EN" "http://www.w3.org/Graphics/SVG/1.1/DTD/svg11.dtd">
<!-- Creator: CorelDRAW 2020 (64-Bit) -->
<svg xmlns="http://www.w3.org/2000/svg" xml:space="preserve" width="200px" height="200px" version="1.1" style="shape-rendering:geometricPrecision; text-rendering:geometricPrecision; image-rendering:optimizeQuality; fill-rule:evenodd; clip-rule:evenodd"
viewBox="0 0 2.2 2.2"
 xmlns:xlink="http://www.w3.org/1999/xlink"
 xmlns:xodm="http://www.corel.com/coreldraw/odm/2003">
 <defs>
  <style type="text/css">
   <![CDATA[
    .fil0 {fill:none}
    .fil5 {fill:#B3E59F}
    .fil4 {fill:#D3CED4}
    .fil2 {fill:#D3D7DE}
    .fil3 {fill:#DF705D}
    .fil1 {fill:#EAECF0}
    .fil6 {fill:#FF8086}
    .fil7 {fill:#FFE07D}
   ]]>
  </style>
 </defs>
 <g id="Capa_x0020_1">
  <metadata id="CorelCorpID_0Corel-Layer"/>
  <rect class="fil0" width="2.2" height="2.2"/>
  <g id="_2246900359408">
   <path class="fil1" d="M0.47 0.15l0.95 0 0.43 0.43 0 1.36c0,0.06 -0.05,0.11 -0.11,0.11l-1.27 0c-0.06,0 -0.11,-0.05 -0.11,-0.11l0 -1.67c0,-0.07 0.05,-0.12 0.11,-0.12z"/>
   <path class="fil2" d="M1.72 0.67l-0.16 0c-0.06,0 -0.11,-0.05 -0.11,-0.11l0 -0.32 0.27 0.27 0 0.16z"/>
   <path class="fil2" d="M1.85 0.58l0 1.36c0,0.06 -0.05,0.11 -0.11,0.11l-0.09 0 0 -1.67 0.2 0.2z"/>
   <path class="fil3" d="M1.85 0.58l-0.32 0c-0.06,0 -0.11,-0.05 -0.11,-0.11l0 -0.32 0.43 0.43z"/>
   <g>
    <rect class="fil4" x="0.53" y="0.34" width="0.8" height="0.22" rx="0.04" ry="0.04"/>
    <rect class="fil4" x="0.93" y="0.73" width="0.66" height="0.05" rx="0.09" ry="0.03"/>
    <rect class="fil4" x="0.93" y="0.85" width="0.66" height="0.05" rx="0.09" ry="0.03"/>
    <rect class="fil4" x="0.93" y="1.17" width="0.66" height="0.05" rx="0.09" ry="0.03"/>
    <rect class="fil4" x="0.93" y="1.28" width="0.66" height="0.05" rx="0.09" ry="0.03"/>
    <rect class="fil4" x="0.93" y="1.62" width="0.66" height="0.05" rx="0.09" ry="0.03"/>
    <rect class="fil4" x="0.93" y="1.73" width="0.66" height="0.05" rx="0.09" ry="0.03"/>
    <rect class="fil5" x="0.52" y="0.75" width="0.27" height="0.27" rx="0.02" ry="0.02"/>
    <rect class="fil6" x="0.52" y="1.19" width="0.27" height="0.27" rx="0.02" ry="0.02"/>
    <rect class="fil7" x="0.52" y="1.62" width="0.27" height="0.27" rx="0.02" ry="0.02"/>
   </g>
  </g>
 </g>
</svg>
