<?xml version="1.0"?>
<svg xmlns="http://www.w3.org/2000/svg" viewBox="0 0 64 64" width="512" height="512"><path d="m56.8645 21.28424-3.36737-3.36731 1.91693-1.91693-1.41406-1.41406-1.91693 1.91693-3.50287-3.50287c-2.28766 2.28766-2.00336 5.71234.2843 8 .04389.04388.09082.082.1355.12433v8.87567h2v-7.57043a5.26954 5.26954 0 0 0 5.8645-1.14533z" fill="#816892"/><path d="m3 15h36v47h-36z" fill="#ffbe88"/><path d="m3 15v47h36z" fill="#eda666"/><path d="m7 19h4v4h-4z" fill="#65cecc"/><path d="m39 29h22v33h-22z" fill="#eaa2e4"/><path d="m39 29v33h22z" fill="#ea7dda"/><path d="m47 43h6v6h-6z" fill="#65cecc"/><path d="m5 11h32v4h-32z" fill="#de2f55"/><path d="m9 2h24v9h-24z" fill="#98e2e2"/><path d="m19 19h4v4h-4z" fill="#98e2e2"/><path d="m31 19h4v4h-4z" fill="#98e2e2"/><path d="m7 30h4v4h-4z" fill="#65cecc"/><path d="m19 30h4v4h-4z" fill="#98e2e2"/><path d="m31 30h4v4h-4z" fill="#98e2e2"/><g fill="#65cecc"><path d="m7 41h4v4h-4z"/><path d="m19 41h4v4h-4z"/><path d="m31 52h4v4h-4z"/></g><path d="m31 41h4v4h-4z" fill="#98e2e2"/><path d="m7 52h4v4h-4z" fill="#65cecc"/><path d="m34.404 56h.596v-4h-3.66z" fill="#98e2e2"/><path d="m54 62h-8v-6.41265a2.58736 2.58736 0 0 1 2.58735-2.58735h2.8253a2.58736 2.58736 0 0 1 2.58735 2.58735z" fill="#65cecc"/><path d="m47 33h6v6h-6z" fill="#98e2e2"/><path d="m23.19275 51h-4.3855a2.80728 2.80728 0 0 0 -2.80725 2.80725v8.19275h10v-8.19275a2.80724 2.80724 0 0 0 -2.80725-2.80725z" fill="#65cecc"/><path d="m48.333 43 4 6h.667v-6z" fill="#98e2e2"/><path d="m9.128 23h1.872v-4h-4v1.222z" fill="#98e2e2"/></svg>
